<svg xmlns="http://www.w3.org/2000/svg" xmlns:xlink="http://www.w3.org/1999/xlink" width="45" zoomAndPan="magnify" viewBox="0 0 33.75 33.749998" height="45" preserveAspectRatio="xMidYMid meet" version="1.0"><defs><clipPath id="ccbaab530c"><path d="M 3.351562 3.351562 L 30.152344 3.351562 L 30.152344 30.152344 L 3.351562 30.152344 Z M 3.351562 3.351562 " clip-rule="nonzero"/></clipPath></defs><path fill="#000000" d="M 10.558594 21.371094 C 9.660156 20.175781 9.148438 18.832031 9.03125 17.339844 L 12.890625 17.339844 C 13.027344 21.46875 14.132812 19.65625 10.558594 21.371094 Z M 10.558594 21.371094 " fill-opacity="1" fill-rule="nonzero"/><path fill="#000000" d="M 12.890625 16.152344 L 9.03125 16.152344 C 9.148438 14.660156 9.660156 13.3125 10.558594 12.113281 C 14.132812 13.839844 13.015625 12.023438 12.890625 16.152344 Z M 12.890625 16.152344 " fill-opacity="1" fill-rule="nonzero"/><path fill="#000000" d="M 13.464844 11.960938 C 12.726562 11.824219 12.035156 11.554688 11.398438 11.160156 C 12.292969 10.296875 13.335938 9.691406 14.527344 9.335938 C 14.035156 10.15625 13.679688 11.03125 13.464844 11.960938 Z M 13.464844 11.960938 " fill-opacity="1" fill-rule="nonzero"/><path fill="#000000" d="M 13.464844 21.53125 C 13.679688 22.460938 14.035156 23.332031 14.527344 24.148438 C 14.480469 24.140625 14.4375 24.128906 14.390625 24.113281 C 13.261719 23.746094 12.261719 23.152344 11.398438 22.335938 C 12.035156 21.925781 12.722656 21.660156 13.464844 21.53125 Z M 13.464844 21.53125 " fill-opacity="1" fill-rule="nonzero"/><path fill="#000000" d="M 18.867188 21.316406 C 18.339844 23.265625 17.519531 24.488281 16.75 24.488281 C 15.984375 24.488281 15.160156 23.265625 14.632812 21.316406 C 16.046875 21.109375 17.457031 21.109375 18.867188 21.316406 Z M 18.867188 21.316406 " fill-opacity="1" fill-rule="nonzero"/><path fill="#000000" d="M 14.632812 12.175781 C 15.160156 10.21875 15.984375 8.996094 16.75 8.996094 C 17.519531 8.996094 18.339844 10.21875 18.867188 12.175781 C 17.457031 12.382812 16.046875 12.382812 14.632812 12.175781 Z M 14.632812 12.175781 " fill-opacity="1" fill-rule="nonzero"/><path fill="#000000" d="M 14.089844 17.339844 L 19.414062 17.339844 C 19.390625 18.28125 19.296875 19.210938 19.128906 20.136719 C 17.542969 19.894531 15.957031 19.894531 14.375 20.136719 C 14.203125 19.210938 14.109375 18.28125 14.089844 17.339844 Z M 14.089844 17.339844 " fill-opacity="1" fill-rule="nonzero"/><path fill="#000000" d="M 19.414062 16.152344 L 14.089844 16.152344 C 14.109375 15.210938 14.203125 14.28125 14.375 13.355469 C 15.957031 13.597656 17.542969 13.597656 19.128906 13.355469 C 19.296875 14.28125 19.390625 15.210938 19.414062 16.152344 Z M 19.414062 16.152344 " fill-opacity="1" fill-rule="nonzero"/><path fill="#000000" d="M 20.039062 21.53125 C 20.777344 21.664062 21.464844 21.933594 22.101562 22.335938 C 21.203125 23.1875 20.164062 23.792969 18.976562 24.148438 C 19.46875 23.332031 19.820312 22.460938 20.039062 21.53125 Z M 20.039062 21.53125 " fill-opacity="1" fill-rule="nonzero"/><path fill="#000000" d="M 20.039062 11.960938 C 19.820312 11.03125 19.464844 10.15625 18.976562 9.335938 C 19.019531 9.351562 19.0625 9.363281 19.109375 9.371094 C 20.246094 9.738281 21.242188 10.332031 22.101562 11.160156 C 21.464844 11.558594 20.777344 11.824219 20.039062 11.960938 Z M 20.039062 11.960938 " fill-opacity="1" fill-rule="nonzero"/><path fill="#000000" d="M 20.609375 17.339844 L 24.46875 17.339844 C 24.351562 18.832031 23.84375 20.175781 22.941406 21.371094 C 19.367188 19.65625 20.484375 21.46875 20.609375 17.339844 Z M 20.609375 17.339844 " fill-opacity="1" fill-rule="nonzero"/><path fill="#000000" d="M 22.941406 12.113281 C 23.84375 13.3125 24.351562 14.65625 24.46875 16.152344 L 20.609375 16.152344 C 20.476562 12.015625 19.367188 13.839844 22.941406 12.113281 Z M 22.941406 12.113281 " fill-opacity="1" fill-rule="nonzero"/><g clip-path="url(#ccbaab530c)"><path fill="#000000" d="M 16.75 3.351562 C 15.871094 3.351562 15 3.4375 14.136719 3.609375 C 13.273438 3.78125 12.4375 4.035156 11.621094 4.371094 C 10.808594 4.707031 10.039062 5.121094 9.304688 5.609375 C 8.574219 6.097656 7.898438 6.652344 7.273438 7.273438 C 6.652344 7.898438 6.097656 8.574219 5.609375 9.304688 C 5.121094 10.039062 4.707031 10.808594 4.371094 11.621094 C 4.035156 12.4375 3.78125 13.273438 3.609375 14.136719 C 3.4375 15 3.351562 15.871094 3.351562 16.75 C 3.351562 17.628906 3.4375 18.503906 3.609375 19.367188 C 3.78125 20.226562 4.035156 21.066406 4.371094 21.878906 C 4.707031 22.691406 5.121094 23.464844 5.609375 24.195312 C 6.097656 24.925781 6.652344 25.605469 7.273438 26.226562 C 7.898438 26.847656 8.574219 27.40625 9.304688 27.894531 C 10.039062 28.382812 10.808594 28.792969 11.621094 29.132812 C 12.4375 29.46875 13.273438 29.722656 14.136719 29.894531 C 15 30.066406 15.871094 30.152344 16.75 30.152344 C 17.628906 30.152344 18.503906 30.066406 19.367188 29.894531 C 20.226562 29.722656 21.066406 29.46875 21.878906 29.132812 C 22.691406 28.792969 23.464844 28.382812 24.195312 27.894531 C 24.925781 27.40625 25.605469 26.847656 26.226562 26.226562 C 26.847656 25.605469 27.40625 24.925781 27.894531 24.195312 C 28.382812 23.464844 28.792969 22.691406 29.132812 21.878906 C 29.46875 21.066406 29.722656 20.226562 29.894531 19.367188 C 30.066406 18.503906 30.152344 17.628906 30.152344 16.75 C 30.152344 15.871094 30.066406 15 29.894531 14.136719 C 29.722656 13.273438 29.46875 12.4375 29.128906 11.625 C 28.792969 10.8125 28.378906 10.039062 27.890625 9.308594 C 27.402344 8.574219 26.847656 7.898438 26.226562 7.277344 C 25.601562 6.65625 24.925781 6.097656 24.195312 5.609375 C 23.464844 5.121094 22.691406 4.707031 21.878906 4.371094 C 21.066406 4.035156 20.226562 3.78125 19.363281 3.609375 C 18.503906 3.4375 17.628906 3.351562 16.75 3.351562 Z M 23.558594 22.53125 C 23.136719 23.019531 22.667969 23.460938 22.152344 23.847656 C 21.632812 24.238281 21.082031 24.566406 20.496094 24.835938 C 19.90625 25.105469 19.296875 25.308594 18.664062 25.445312 C 18.035156 25.585938 17.394531 25.652344 16.75 25.652344 C 16.101562 25.652344 15.464844 25.582031 14.832031 25.445312 C 14.199219 25.304688 13.589844 25.101562 13.003906 24.832031 C 12.417969 24.5625 11.863281 24.230469 11.347656 23.84375 C 10.832031 23.453125 10.363281 23.011719 9.941406 22.523438 C 5.011719 16.8125 9.21875 7.761719 16.75 7.808594 C 17.601562 7.8125 18.433594 7.9375 19.25 8.179688 C 20.066406 8.421875 20.832031 8.773438 21.546875 9.234375 C 22.261719 9.695312 22.898438 10.246094 23.457031 10.886719 C 24.015625 11.527344 24.472656 12.234375 24.832031 13.007812 C 25.1875 13.78125 25.429688 14.585938 25.558594 15.425781 C 25.683594 16.269531 25.691406 17.109375 25.578125 17.953125 C 25.464844 18.796875 25.238281 19.609375 24.894531 20.386719 C 24.550781 21.164062 24.105469 21.878906 23.558594 22.53125 Z M 23.558594 22.53125 " fill-opacity="1" fill-rule="nonzero"/></g></svg>