<svg xmlns="http://www.w3.org/2000/svg" xmlns:xlink="http://www.w3.org/1999/xlink" width="45" zoomAndPan="magnify" viewBox="0 0 33.75 33.749998" height="45" preserveAspectRatio="xMidYMid meet" version="1.0"><defs><clipPath id="06b4eb0bf3"><path d="M 3.351562 3.398438 L 30.152344 3.398438 L 30.152344 30.199219 L 3.351562 30.199219 Z M 3.351562 3.398438 " clip-rule="nonzero"/></clipPath></defs><g clip-path="url(#06b4eb0bf3)"><path fill="#000000" d="M 30.152344 16.796875 C 30.152344 9.398438 24.152344 3.398438 16.753906 3.398438 C 9.355469 3.398438 3.355469 9.398438 3.355469 16.796875 C 3.355469 23.082031 7.679688 28.355469 13.515625 29.800781 L 13.515625 20.890625 L 10.753906 20.890625 L 10.753906 16.796875 L 13.515625 16.796875 L 13.515625 15.035156 C 13.515625 10.472656 15.578125 8.359375 20.058594 8.359375 C 20.90625 8.359375 22.371094 8.527344 22.96875 8.691406 L 22.96875 12.402344 C 22.652344 12.371094 22.101562 12.351562 21.421875 12.351562 C 19.222656 12.351562 18.375 13.183594 18.375 15.347656 L 18.375 16.796875 L 22.75 16.796875 L 22 20.890625 L 18.375 20.890625 L 18.375 30.097656 C 25.011719 29.296875 30.152344 23.644531 30.152344 16.796875 Z M 30.152344 16.796875 " fill-opacity="1" fill-rule="nonzero"/></g></svg>