<svg xmlns="http://www.w3.org/2000/svg" xmlns:xlink="http://www.w3.org/1999/xlink" width="45" zoomAndPan="magnify" viewBox="0 0 33.75 33.749998" height="45" preserveAspectRatio="xMidYMid meet" version="1.0"><defs><clipPath id="391225c268"><path d="M 2.308594 3.351562 L 29.855469 3.351562 L 29.855469 30.894531 L 2.308594 30.894531 Z M 2.308594 3.351562 " clip-rule="nonzero"/></clipPath></defs><g clip-path="url(#391225c268)"><path fill="#000000" d="M 10.375 3.445312 C 8.910156 3.511719 7.90625 3.75 7.035156 4.089844 C 6.128906 4.445312 5.359375 4.917969 4.597656 5.683594 C 3.832031 6.449219 3.363281 7.21875 3.015625 8.125 C 2.675781 9.003906 2.445312 10.003906 2.382812 11.46875 C 2.316406 12.9375 2.300781 13.40625 2.308594 17.144531 C 2.316406 20.882812 2.332031 21.351562 2.402344 22.820312 C 2.472656 24.285156 2.707031 25.285156 3.046875 26.160156 C 3.402344 27.066406 3.875 27.832031 4.640625 28.59375 C 5.40625 29.359375 6.175781 29.828125 7.082031 30.179688 C 7.957031 30.515625 8.960938 30.75 10.425781 30.8125 C 11.894531 30.875 12.363281 30.890625 16.101562 30.882812 C 19.839844 30.875 20.308594 30.859375 21.777344 30.789062 C 23.242188 30.71875 24.242188 30.484375 25.117188 30.144531 C 26.023438 29.789062 26.789062 29.320312 27.550781 28.550781 C 28.316406 27.785156 28.785156 27.015625 29.136719 26.109375 C 29.472656 25.234375 29.703125 24.230469 29.769531 22.769531 C 29.832031 21.300781 29.847656 20.832031 29.839844 17.09375 C 29.835938 13.355469 29.816406 12.886719 29.746094 11.417969 C 29.675781 9.949219 29.445312 8.953125 29.101562 8.074219 C 28.746094 7.171875 28.277344 6.40625 27.507812 5.640625 C 26.742188 4.878906 25.972656 4.40625 25.066406 4.058594 C 24.191406 3.71875 23.191406 3.488281 21.726562 3.425781 C 20.257812 3.359375 19.785156 3.34375 16.046875 3.351562 C 12.308594 3.359375 11.84375 3.375 10.375 3.445312 M 10.535156 28.332031 C 9.191406 28.273438 8.464844 28.050781 7.976562 27.863281 C 7.332031 27.613281 6.875 27.316406 6.390625 26.835938 C 5.910156 26.355469 5.609375 25.898438 5.359375 25.257812 C 5.171875 24.773438 4.941406 24.042969 4.878906 22.699219 C 4.8125 21.25 4.796875 20.816406 4.789062 17.140625 C 4.78125 13.464844 4.796875 13.027344 4.859375 11.578125 C 4.914062 10.234375 5.140625 9.503906 5.328125 9.019531 C 5.578125 8.375 5.875 7.917969 6.351562 7.433594 C 6.835938 6.953125 7.292969 6.652344 7.933594 6.402344 C 8.421875 6.210938 9.148438 5.988281 10.488281 5.921875 C 11.941406 5.855469 12.375 5.839844 16.050781 5.832031 C 19.726562 5.824219 20.164062 5.835938 21.617188 5.902344 C 22.957031 5.960938 23.6875 6.183594 24.171875 6.371094 C 24.816406 6.621094 25.273438 6.914062 25.757812 7.398438 C 26.242188 7.878906 26.539062 8.335938 26.789062 8.980469 C 26.980469 9.460938 27.207031 10.191406 27.269531 11.53125 C 27.339844 12.984375 27.355469 13.421875 27.359375 17.09375 C 27.367188 20.769531 27.355469 21.207031 27.289062 22.65625 C 27.230469 24 27.007812 24.730469 26.820312 25.214844 C 26.574219 25.855469 26.273438 26.316406 25.792969 26.796875 C 25.3125 27.28125 24.855469 27.578125 24.210938 27.832031 C 23.726562 28.019531 23 28.246094 21.660156 28.308594 C 20.207031 28.378906 19.773438 28.394531 16.09375 28.402344 C 12.421875 28.40625 11.984375 28.394531 10.53125 28.332031 M 21.757812 9.757812 C 21.757812 10.671875 22.5 11.410156 23.410156 11.40625 C 24.324219 11.40625 25.0625 10.664062 25.0625 9.753906 C 25.058594 8.839844 24.316406 8.101562 23.40625 8.101562 C 22.492188 8.105469 21.753906 8.847656 21.757812 9.757812 M 9.003906 17.132812 C 9.011719 21.035156 12.183594 24.191406 16.085938 24.183594 C 19.992188 24.175781 23.152344 21.007812 23.144531 17.105469 C 23.136719 13.199219 19.964844 10.042969 16.058594 10.046875 C 12.15625 10.054688 8.996094 13.226562 9.003906 17.132812 M 11.484375 17.125 C 11.480469 14.589844 13.53125 12.53125 16.066406 12.527344 C 18.597656 12.523438 20.660156 14.574219 20.664062 17.109375 C 20.667969 19.644531 18.617188 21.703125 16.082031 21.707031 C 13.550781 21.710938 11.492188 19.660156 11.488281 17.125 " fill-opacity="1" fill-rule="nonzero"/></g></svg>