<svg xmlns="http://www.w3.org/2000/svg" xmlns:xlink="http://www.w3.org/1999/xlink" width="45" zoomAndPan="magnify" viewBox="0 0 33.75 33.749998" height="45" preserveAspectRatio="xMidYMid meet" version="1.0"><defs><clipPath id="a48ab59acb"><path d="M 2.003906 2.242188 L 31 2.242188 L 31 31.277344 L 2.003906 31.277344 Z M 2.003906 2.242188 " clip-rule="nonzero"/></clipPath></defs><g clip-path="url(#a48ab59acb)"><path fill="#000000" d="M 26.667969 26.796875 L 22.378906 26.796875 L 22.378906 20.117188 C 22.378906 18.523438 22.351562 16.472656 20.148438 16.472656 C 17.945312 16.472656 17.574219 18.207031 17.574219 20 L 17.574219 26.796875 L 13.28125 26.796875 L 13.28125 13.058594 L 17.402344 13.058594 L 17.402344 14.9375 L 17.457031 14.9375 C 18.296875 13.511719 19.859375 12.65625 21.519531 12.71875 C 25.867188 12.71875 26.671875 15.5625 26.671875 19.261719 L 26.671875 26.796875 Z M 8.445312 11.183594 C 7.070312 11.183594 5.957031 10.074219 5.953125 8.707031 C 5.953125 7.339844 7.070312 6.234375 8.445312 6.230469 C 9.820312 6.230469 10.933594 7.339844 10.933594 8.707031 C 10.933594 10.074219 9.820312 11.179688 8.445312 11.183594 M 10.589844 26.796875 L 6.296875 26.796875 L 6.296875 13.058594 L 10.589844 13.058594 Z M 28.808594 2.273438 L 4.140625 2.273438 C 2.976562 2.257812 2.019531 3.1875 2.003906 4.347656 L 2.003906 28.976562 C 2.019531 30.136719 2.976562 31.066406 4.140625 31.054688 L 28.808594 31.054688 C 29.976562 31.070312 30.9375 30.140625 30.953125 28.976562 L 30.953125 4.34375 C 30.9375 3.183594 29.976562 2.253906 28.808594 2.269531 " fill-opacity="1" fill-rule="nonzero"/></g></svg>