<svg xmlns="http://www.w3.org/2000/svg" xmlns:xlink="http://www.w3.org/1999/xlink" width="45" zoomAndPan="magnify" viewBox="0 0 33.75 33.749998" height="45" preserveAspectRatio="xMidYMid meet" version="1.0"><defs><clipPath id="90be81338e"><path d="M 0 0 L 33.5 0 L 33.5 33.5 L 0 33.5 Z M 0 0 " clip-rule="nonzero"/></clipPath></defs><path fill="#000000" d="M 24.117188 13.066406 C 24.117188 13.066406 24.371094 18.417969 20.292969 21.71875 C 14.210938 26.65625 7.648438 22.648438 7.648438 22.648438 C 7.648438 22.648438 9.242188 22.679688 10.65625 22.296875 C 12.066406 21.914062 13.066406 21.011719 13.066406 21.011719 C 13.066406 21.011719 11.53125 20.6875 10.738281 20.109375 C 9.933594 19.53125 9.636719 18.417969 9.636719 18.417969 C 9.636719 18.417969 10.160156 18.457031 10.5 18.457031 C 10.839844 18.445312 11.246094 18.289062 11.246094 18.289062 C 11.246094 18.289062 10.148438 18.164062 9.117188 17.003906 C 8.3125 16.101562 8.367188 14.589844 8.367188 14.589844 C 8.367188 14.589844 8.847656 14.875 9.117188 14.945312 C 9.371094 15.015625 9.863281 15.015625 9.863281 15.015625 C 9.863281 15.015625 8.90625 14.4375 8.46875 12.96875 C 8.042969 11.488281 8.863281 9.992188 8.863281 9.992188 C 8.863281 9.992188 10.273438 11.714844 12.40625 12.828125 C 14.535156 13.941406 16.539062 13.898438 16.539062 13.898438 C 16.539062 13.898438 16.242188 13.011719 16.75 11.714844 C 17.257812 10.402344 18.417969 9.46875 20.167969 9.328125 C 21.914062 9.1875 23.03125 10.511719 23.03125 10.511719 C 23.03125 10.511719 23.566406 10.414062 24.1875 10.1875 C 24.808594 9.964844 25.414062 9.679688 25.414062 9.679688 C 25.414062 9.679688 25.203125 10.34375 24.78125 10.867188 C 24.355469 11.386719 23.878906 11.699219 23.878906 11.699219 C 23.878906 11.699219 24.429688 11.65625 24.976562 11.5 C 25.527344 11.347656 25.839844 11.191406 25.839844 11.191406 C 25.230469 12.261719 24.117188 13.066406 24.117188 13.066406 Z M 24.117188 13.066406 " fill-opacity="1" fill-rule="nonzero"/><g clip-path="url(#90be81338e)"><path fill="#000000" d="M 16.75 33.5 C 7.523438 33.5 0 25.996094 0 16.75 C 0 7.507812 7.523438 0 16.75 0 C 25.980469 0 33.5 7.523438 33.5 16.75 C 33.5 25.980469 25.996094 33.5 16.75 33.5 Z M 16.75 0.917969 C 8.015625 0.917969 0.917969 8.015625 0.917969 16.75 C 0.917969 25.484375 8.015625 32.585938 16.75 32.585938 C 25.484375 32.585938 32.585938 25.484375 32.585938 16.75 C 32.585938 8.015625 25.484375 0.917969 16.75 0.917969 Z M 16.75 0.917969 " fill-opacity="1" fill-rule="nonzero"/></g></svg>